<svg xmlns="http://www.w3.org/2000/svg" viewBox="0 0 64 64"><rect width="64" height="64" rx="16" fill="#10695a"/><circle cx="32" cy="30" r="15" fill="none" stroke="#fff" stroke-width="4"/><circle cx="26.5" cy="27" r="2.4" fill="#fff"/><circle cx="37.5" cy="27" r="2.4" fill="#fff"/><path d="M25.5 34.5c3.6 3.6 9.4 3.6 13 0" stroke="#fff" stroke-width="3" fill="none" stroke-linecap="round"/><path d="M10 20v-6a4 4 0 0 1 4-4h6M44 10h6a4 4 0 0 1 4 4v6M54 44v6a4 4 0 0 1-4 4h-6M20 54h-6a4 4 0 0 1-4-4v-6" stroke="#78d8be" stroke-width="3.5" fill="none" stroke-linecap="round"/></svg>
